<svg width="46" height="40" viewBox="0 0 46 40" fill="none" xmlns="http://www.w3.org/2000/svg">
<path d="M33.7812 0C31.2851 0 28.9966 0.779115 26.9794 2.31575C25.0456 3.78894 23.758 5.66531 23 7.02973C22.242 5.66522 20.9544 3.78894 19.0206 2.31575C17.0034 0.779115 14.7149 0 12.2188 0C5.25298 0 0 5.61212 0 13.0543C0 21.0945 6.55347 26.5955 16.4746 34.9232C18.1593 36.3374 20.0689 37.9404 22.0538 39.6501C22.3154 39.8758 22.6514 40 23 40C23.3486 40 23.6846 39.8758 23.9462 39.6502C25.9312 37.9403 27.8408 36.3373 29.5265 34.9223C39.4465 26.5955 46 21.0945 46 13.0543C46 5.61212 40.747 0 33.7812 0Z" fill="white"/>
</svg>
