<svg width="36" height="40" viewBox="0 0 36 40" fill="none" xmlns="http://www.w3.org/2000/svg">
<path d="M18 0C12.1845 0 7.45312 4.73133 7.45312 10.5469C7.45312 16.3624 12.1845 21.0938 18 21.0938C23.8155 21.0938 28.5469 16.3624 28.5469 10.5469C28.5469 4.73133 23.8155 0 18 0Z" fill="white"/>
<path d="M31.1223 27.984C28.2348 25.0521 24.407 23.4375 20.3438 23.4375H15.6562C11.5931 23.4375 7.76516 25.0521 4.87766 27.984C2.0043 30.9015 0.421875 34.7526 0.421875 38.8281C0.421875 39.4753 0.946562 40 1.59375 40H34.4062C35.0534 40 35.5781 39.4753 35.5781 38.8281C35.5781 34.7526 33.9957 30.9015 31.1223 27.984Z" fill="white"/>
</svg>
